<?xml version="1.0" encoding="UTF-8" standalone="no"?>
<svg
   width="149.5069"
   height="128.29688"
   viewBox="0 0 350 300.34674"
   version="1.1"
   xmlns="http://www.w3.org/2000/svg"
   xmlns:svg="http://www.w3.org/2000/svg">
  <defs
    />
  <g
     transform="matrix(1.6674941,0,0,1.6674941,135.16625,-9.0044683)"
     fill="#545454">
    <g>
      <path
         fill="#545454"
         d="m 24,5.4 c -2.7,0 -4.9,2.2 -4.9,4.9 0,2.7 2.2,4.9 4.9,4.9 2.7,0 4.9,-2.2 4.9,-4.9 0,-2.7 -2.2,-4.9 -4.9,-4.9 z" />
      <path
         fill="#545454"
         d="m 38.7,15.1 c -2.7,0 -4.9,2.2 -4.9,4.9 0,2.7 2.2,4.9 4.9,4.9 2.7,0 4.9,-2.2 4.9,-4.9 0,-2.7 -2.2,-4.9 -4.9,-4.9 z" />
      <path
         fill="#545454"
         d="m 9.3,15.1 c -2.7,0 -4.9,2.2 -4.9,4.9 0,2.7 2.2,4.9 4.9,4.9 2.7,0 4.9,-2.2 4.9,-4.9 0,-2.7 -2.2,-4.9 -4.9,-4.9 z" />
      <path
         fill="#545454"
         d="m 24,29.4 c -8.4,0 -14.2,3 -14.2,5.7 0,2.7 5.8,5.7 14.2,5.7 8.4,0 14.2,-3 14.2,-5.7 0,-2.7 -5.8,-5.7 -14.2,-5.7 z" />
      <path
         fill="#545454"
         d="m 7.8,35.1 c 0,-2.5 2.5,-4.7 6.3,-6.1 -1.4,-1.4 -3.1,-2.1 -4.8,-2.1 -4.9,0 -8.8,5.8 -8.8,12.9 0,0.1 0,0.2 0,0.3 v 0.1 c 0,0.4 0.3,0.8 0.6,0.9 2.5,1 5.3,1.5 8.2,1.5 2.2,0 4.3,-0.3 6.4,-0.9 C 11,40.4 7.8,37.9 7.8,35.1 Z" />
      <path
         fill="#545454"
         d="m 24,27.4 c 3.3,0 6.2,0.4 8.8,1.2 -0.5,-6.5 -4.2,-11.5 -8.8,-11.5 -4.6,0 -8.3,5 -8.8,11.5 2.6,-0.8 5.5,-1.2 8.8,-1.2 z" />
      <path
         fill="#545454"
         d="m 38.7,26.8 c -1.7,0 -3.4,0.7 -4.8,2.1 3.9,1.4 6.3,3.6 6.3,6.1 0,2.9 -3.1,5.3 -7.9,6.6 2.1,0.6 4.2,0.9 6.4,0.9 2.9,0 5.7,-0.5 8.2,-1.5 0.4,-0.1 0.6,-0.5 0.6,-0.9 V 40 c 0,-0.1 0,-0.2 0,-0.3 0,-7 -4,-12.9 -8.8,-12.9 z" />
    </g>
  </g>
  <g
     transform="matrix(3.5307173,0,0,3.5307173,-2.5421174,44.009481)"
     fill="#4977cf">
    <path
       d="m 10.56,40.56 c -5,0 -8.84,-2.96 -9.84,-6.24 l 4.76,-1.4 c 0.68,1.92 2.6,3.36 5.28,3.36 2.04,0 3.36,-0.96 3.36,-2.08 0,-1 -0.76,-1.56 -2.24,-2 L 6.72,30.68 c -2.88,-0.84 -5,-2.52 -5,-5.4 0,-3.4 3.68,-6.08 8.12,-6.08 4.36,0 7.68,2.08 8.96,5.12 l -4.68,1.36 C 13.4,24.4 11.92,23.32 9.8,23.32 c -1.64,0 -2.88,0.88 -2.88,1.84 0,0.8 0.56,1.28 1.68,1.6 l 5.04,1.44 c 3.04,0.88 5.68,2.12 5.68,5.76 0,3.8 -3.6,6.6 -8.76,6.6 z m 19.85,0 c -6.24,0 -10.84,-4.64 -10.84,-10.68 0,-6.08 4.6,-10.68 10.84,-10.68 6.24,0 10.8,4.6 10.8,10.68 0,6.04 -4.56,10.68 -10.8,10.68 z m 0,-4.8 c 3.36,0 5.68,-2.52 5.68,-5.88 0,-3.36 -2.32,-5.88 -5.68,-5.88 -3.4,0 -5.68,2.52 -5.68,5.88 0,3.36 2.28,5.88 5.68,5.88 z m 21.77,4.8 c -6.2,0 -10.76,-4.64 -10.76,-10.72 0,-6.04 4.56,-10.64 10.72,-10.64 5.6,0 9.08,3.6 9.88,6.64 l -4.92,1.4 c -0.44,-1.68 -2.32,-3.36 -4.96,-3.36 -3.36,0 -5.52,2.76 -5.52,5.96 0,3.16 2.16,6 5.52,6 2.64,0 4.52,-1.56 4.96,-3.24 l 4.92,1.36 c -0.8,3.08 -4.28,6.6 -9.84,6.6 z M 65.99,16.92 c -1.76,0 -3.16,-1.36 -3.16,-3.12 0,-1.68 1.4,-3.04 3.16,-3.04 1.76,0 3.16,1.36 3.16,3.04 0,1.76 -1.4,3.12 -3.16,3.12 z M 63.27,40 V 19.76 h 5.32 V 40 Z m 16.81,0.56 c -5.6,0 -10,-4.56 -10,-10.68 0,-6.16 4.4,-10.68 10,-10.68 2.84,0 5.08,1.16 6.52,3 v -2.44 h 5.32 V 40 H 86.6 v -2.48 c -1.44,1.84 -3.68,3.04 -6.52,3.04 z M 81,35.84 c 3.2,0 5.76,-2.48 5.76,-6 0,-3.48 -2.56,-5.92 -5.76,-5.92 -3.32,0 -5.68,2.44 -5.68,5.92 0,3.52 2.36,6 5.68,6 z M 94.57,40 V 10.8 h 5.28 V 40 Z"
       id="path324" />
  </g>
  <g
     transform="matrix(2.7399404,0,0,2.7399404,-3.726318,167.51824)"
     fill="#4977cf">
    <path
       d="m 12.36,40.56 c -6.48,0 -11,-4.28 -11,-10.68 0,-6.04 4.24,-10.68 10.6,-10.68 6.64,0 10.44,4.6 10.44,10.4 0,0.64 0,1.24 -0.12,1.88 H 6.56 c 0.36,2.6 2.2,4.6 5.88,4.6 2.56,0 4.12,-1.16 4.92,-2.68 l 4.76,1.4 c -1.16,2.64 -4.44,5.76 -9.76,5.76 z M 6.56,28.16 H 17.24 C 17,25.68 15.08,23.68 11.92,23.68 c -3.08,0 -5.08,2.16 -5.36,4.48 z M 42.97,40 H 36.93 L 32.17,33.56 27.41,40 h -6 l 7.56,-10.24 -7.24,-10 h 6 l 4.44,6.12 4.48,-6.12 h 5.96 l -7.2,10 z M 54.98,19.2 c 5.6,0 9.96,4.52 9.96,10.68 0,6.12 -4.36,10.68 -9.96,10.68 -2.88,0 -5.08,-1.2 -6.56,-3.04 V 48.4 H 43.14 V 19.76 h 5.28 v 2.44 c 1.48,-1.84 3.68,-3 6.56,-3 z m -0.92,16.64 c 3.32,0 5.68,-2.48 5.68,-6 0,-3.48 -2.36,-5.92 -5.68,-5.92 -3.2,0 -5.76,2.44 -5.76,5.92 0,3.52 2.56,6 5.76,6 z m 22.09,4.72 c -6.48,0 -11,-4.28 -11,-10.68 0,-6.04 4.24,-10.68 10.6,-10.68 6.64,0 10.44,4.6 10.44,10.4 0,0.64 0,1.24 -0.12,1.88 H 70.35 c 0.36,2.6 2.2,4.6 5.88,4.6 2.56,0 4.12,-1.16 4.92,-2.68 l 4.76,1.4 c -1.16,2.64 -4.44,5.76 -9.76,5.76 z m -5.8,-12.4 h 10.68 c -0.24,-2.48 -2.16,-4.48 -5.32,-4.48 -3.08,0 -5.08,2.16 -5.36,4.48 z m 22.57,-5.4 c 1.2,-2.36 3.52,-3.72 6.68,-3.28 v 4.96 c -4.32,-0.68 -6.68,1.32 -6.68,6.76 V 40 H 87.64 V 19.76 h 5.28 z m 10.25,-5.84 c -1.76,0 -3.16,-1.36 -3.16,-3.12 0,-1.68 1.4,-3.04 3.16,-3.04 1.76,0 3.16,1.36 3.16,3.04 0,1.76 -1.4,3.12 -3.16,3.12 z M 100.45,40 V 19.76 h 5.32 V 40 Z m 16.81,0.56 c -5.6,0 -10,-4.56 -10,-10.68 0,-6.16 4.4,-10.68 10,-10.68 2.84,0 5.08,1.16 6.52,3 v -2.44 h 5.32 V 40 h -5.32 v -2.48 c -1.44,1.84 -3.68,3.04 -6.52,3.04 z m 0.92,-4.72 c 3.2,0 5.76,-2.48 5.76,-6 0,-3.48 -2.56,-5.92 -5.76,-5.92 -3.32,0 -5.68,2.44 -5.68,5.92 0,3.52 2.36,6 5.68,6 z" />
  </g>
</svg>
